<svg preserveAspectRatio="none" width="100%" height="100%" overflow="visible" style="display: block;" viewBox="0 0 304.98 224.5" fill="none" xmlns="http://www.w3.org/2000/svg">
<g id="Background Details">
<path id="Rectangle 39342" d="M13.7132 64.1341C6.13962 56.4352 6.24119 44.0544 13.9401 36.4808C21.639 28.9072 34.0198 29.0088 41.5934 36.7077L199.349 197.073L171.469 224.5L13.7132 64.1341Z" fill="var(--fill-0, white)" fill-opacity="0.15"/>
<path id="Rectangle 39343" d="M63.3443 50.3665C55.7707 42.6676 55.8723 30.2868 63.5712 22.7132V22.7132C71.2701 15.1396 83.6509 15.2412 91.2245 22.9401L248.98 183.306L221.1 210.732L63.3443 50.3665Z" fill="var(--fill-0, white)" fill-opacity="0.15"/>
<path id="Rectangle 39344" d="M119.344 41.3665C111.771 33.6676 111.872 21.2868 119.571 13.7132V13.7132C127.27 6.13961 139.651 6.24119 147.224 13.9401L304.98 174.306L277.1 201.732L119.344 41.3665Z" fill="var(--fill-0, white)" fill-opacity="0.15"/>
</g>
</svg>
