<svg preserveAspectRatio="none" width="100%" height="100%" overflow="visible" style="display: block;" viewBox="0 0 15.1844 15.1864" fill="none" xmlns="http://www.w3.org/2000/svg">
<path id="Vector" d="M15.1557 12.196C15.1323 12.1259 15.0954 12.0611 15.047 12.0053C14.9986 11.9495 14.9397 11.9037 14.8736 11.8707C14.8075 11.8377 14.7356 11.818 14.6619 11.8127C14.5882 11.8075 14.5142 11.8168 14.4441 11.8402L13.2193 12.2487L11.1873 8.18465C11.1405 8.0913 11.0688 8.01279 10.98 7.95791C10.8912 7.90302 10.7889 7.87392 10.6845 7.87387H5.05952V6.18637H8.99702C9.14621 6.18637 9.28928 6.1271 9.39477 6.02161C9.50026 5.91612 9.55952 5.77305 9.55952 5.62387C9.55952 5.47468 9.50026 5.33161 9.39477 5.22612C9.28928 5.12063 9.14621 5.06137 8.99702 5.06137H5.05952V4.42855C5.58977 4.29164 6.05188 3.96605 6.35924 3.5128C6.66659 3.05955 6.79809 2.50976 6.72909 1.96649C6.66008 1.42322 6.39531 0.923766 5.9844 0.561747C5.57349 0.199728 5.04466 0 4.49702 0C3.94939 0 3.42055 0.199728 3.00964 0.561747C2.59873 0.923766 2.33396 1.42322 2.26496 1.96649C2.19595 2.50976 2.32745 3.05955 2.63481 3.5128C2.94217 3.96605 3.40428 4.29164 3.93452 4.42855V5.18863C2.72167 5.46584 1.65337 6.17995 0.93351 7.19466C0.21365 8.20937 -0.107356 9.45363 0.0317614 10.69C0.170879 11.9263 0.760377 13.0681 1.68774 13.8974C2.61511 14.7268 3.8154 15.1856 5.05952 15.1864C7.4164 15.1864 9.53772 13.5896 10.1044 11.3895C10.1229 11.3179 10.1271 11.2434 10.1168 11.1703C10.1065 11.0971 10.0818 11.0266 10.0443 10.963C10.0067 10.8993 9.95702 10.8437 9.89797 10.7992C9.83893 10.7548 9.77171 10.7224 9.70015 10.7039C9.62859 10.6855 9.55409 10.6813 9.48091 10.6916C9.40773 10.7019 9.3373 10.7266 9.27364 10.7641C9.20998 10.8017 9.15434 10.8514 9.10989 10.9104C9.06545 10.9695 9.03307 11.0367 9.0146 11.1082C8.58147 12.7957 6.88132 14.0614 5.05952 14.0614C4.11396 14.061 3.20008 13.7205 2.48493 13.1019C1.76978 12.4833 1.30112 11.628 1.1646 10.6923C1.02809 9.75669 1.23283 8.80315 1.74142 8.00601C2.25001 7.20888 3.02847 6.62138 3.93452 6.3509V8.43637C3.93452 8.58555 3.99379 8.72862 4.09928 8.83411C4.20476 8.9396 4.34784 8.99887 4.49702 8.99887H10.3365L12.4311 13.1881C12.4918 13.3091 12.5941 13.4042 12.7193 13.4559C12.8444 13.5075 12.984 13.5123 13.1124 13.4693L14.7999 12.9068C14.9413 12.8597 15.0582 12.7583 15.1249 12.625C15.1916 12.4917 15.2027 12.3374 15.1557 12.196ZM3.37202 2.24887C3.37202 2.02636 3.438 1.80885 3.56162 1.62385C3.68524 1.43884 3.86094 1.29465 4.0665 1.2095C4.27207 1.12435 4.49827 1.10207 4.7165 1.14548C4.93473 1.18889 5.13518 1.29604 5.29252 1.45337C5.44985 1.6107 5.557 1.81116 5.60041 2.02939C5.64381 2.24762 5.62154 2.47382 5.53639 2.67938C5.45124 2.88495 5.30704 3.06065 5.12204 3.18427C4.93703 3.30789 4.71953 3.37387 4.49702 3.37387C4.19865 3.37387 3.91251 3.25534 3.70153 3.04436C3.49055 2.83338 3.37202 2.54723 3.37202 2.24887Z" fill="var(--fill-0, #1A1A1A)"/>
</svg>
