<svg preserveAspectRatio="none" width="100%" height="100%" overflow="visible" style="display: block;" viewBox="0 0 14.625 14.625" fill="none" xmlns="http://www.w3.org/2000/svg">
<path id="Vector" d="M4.78125 8.15625C4.61438 8.15625 4.45125 8.10676 4.31249 8.01405C4.17374 7.92134 4.06559 7.78956 4.00173 7.63539C3.93787 7.48121 3.92116 7.31156 3.95372 7.14789C3.98627 6.98422 4.06663 6.83388 4.18463 6.71588C4.30263 6.59788 4.45297 6.51752 4.61665 6.48496C4.78032 6.45241 4.94997 6.46912 5.10414 6.53298C5.25832 6.59684 5.39009 6.70498 5.48281 6.84374C5.57552 6.98249 5.625 7.14562 5.625 7.3125C5.625 7.53628 5.53611 7.75089 5.37787 7.90912C5.21964 8.06735 5.00503 8.15625 4.78125 8.15625ZM9.84375 6.46875C9.67688 6.46875 9.51375 6.51823 9.37499 6.61095C9.23624 6.70366 9.12809 6.83544 9.06423 6.98961C9.00037 7.14379 8.98366 7.31344 9.01622 7.47711C9.04877 7.64078 9.12913 7.79112 9.24713 7.90912C9.36513 8.02712 9.51547 8.10748 9.67915 8.14004C9.84282 8.17259 10.0125 8.15588 10.1666 8.09202C10.3208 8.02816 10.4526 7.92002 10.5453 7.78126C10.638 7.64251 10.6875 7.47938 10.6875 7.3125C10.6875 7.08872 10.5986 6.87411 10.4404 6.71588C10.2821 6.55764 10.0675 6.46875 9.84375 6.46875ZM8.98102 9.64898C8.48003 9.95992 7.90213 10.1247 7.3125 10.1247C6.72287 10.1247 6.14497 9.95992 5.64399 9.64898C5.51774 9.56936 5.36503 9.54314 5.21946 9.57611C5.07388 9.60907 4.94736 9.69852 4.86774 9.82477C4.78811 9.95101 4.7619 10.1037 4.79486 10.2493C4.82783 10.3949 4.91727 10.5214 5.04352 10.601C5.72425 11.0254 6.51034 11.2503 7.3125 11.2503C8.11467 11.2503 8.90076 11.0254 9.58149 10.601C9.70774 10.5214 9.79718 10.3949 9.83014 10.2493C9.86311 10.1037 9.8369 9.95101 9.75727 9.82477C9.67764 9.69852 9.55112 9.60907 9.40555 9.57611C9.25997 9.54314 9.10727 9.56936 8.98102 9.64898ZM14.625 7.3125C14.625 8.75878 14.1961 10.1726 13.3926 11.3751C12.5891 12.5776 11.4471 13.5149 10.1109 14.0684C8.77469 14.6218 7.30439 14.7666 5.88591 14.4845C4.46742 14.2023 3.16446 13.5059 2.14178 12.4832C1.11911 11.4605 0.422665 10.1576 0.140511 8.7391C-0.141644 7.32061 0.00316838 5.85031 0.556634 4.51413C1.1101 3.17794 2.04736 2.03589 3.2499 1.23238C4.45243 0.428871 5.86623 0 7.3125 0C9.25127 0.00204737 11.11 0.773127 12.481 2.14404C13.8519 3.51496 14.623 5.37373 14.625 7.3125ZM13.5 7.3125C13.498 5.71967 12.8827 4.1888 11.7817 3.03777C10.6806 1.88674 9.17859 1.204 7.58743 1.13133C6.7725 2.27672 6.75 3.36656 6.75 3.375C6.75 3.52418 6.80927 3.66726 6.91476 3.77275C7.02024 3.87824 7.16332 3.9375 7.3125 3.9375C7.46169 3.9375 7.60476 3.87824 7.71025 3.77275C7.81574 3.66726 7.875 3.52418 7.875 3.375C7.875 3.22582 7.93427 3.08274 8.03976 2.97725C8.14524 2.87176 8.28832 2.8125 8.4375 2.8125C8.58669 2.8125 8.72976 2.87176 8.83525 2.97725C8.94074 3.08274 9 3.22582 9 3.375C9 3.82255 8.82221 4.25178 8.50575 4.56824C8.18928 4.88471 7.76006 5.0625 7.3125 5.0625C6.86495 5.0625 6.43573 4.88471 6.11926 4.56824C5.80279 4.25178 5.625 3.82255 5.625 3.375C5.625 3.32367 5.63414 2.36953 6.21985 1.22133C5.06135 1.42917 3.98616 1.96314 3.12046 2.76055C2.25475 3.55797 1.63444 4.58577 1.33232 5.72333C1.0302 6.86089 1.0588 8.06102 1.41476 9.1829C1.77073 10.3048 2.43929 11.3019 3.34199 12.0571C4.2447 12.8124 5.3441 13.2946 6.51118 13.447C7.67827 13.5994 8.86462 13.4158 9.93102 12.9177C10.9974 12.4196 11.8996 11.6277 12.5318 10.6349C13.164 9.64203 13.4998 8.4895 13.5 7.3125Z" fill="var(--fill-0, #1A1A1A)"/>
</svg>
