<svg preserveAspectRatio="none" width="100%" height="100%" overflow="visible" style="display: block;" viewBox="0 0 93.75 78.3228" fill="none" xmlns="http://www.w3.org/2000/svg">
<g id="POI/Car" opacity="0.8">
<path id="Vector" d="M34.375 3.13291C34.375 2.30201 34.7042 1.50514 35.2903 0.917608C35.8763 0.330074 36.6712 0 37.5 0H56.25C57.0788 0 57.8737 0.330074 58.4597 0.917608C59.0458 1.50514 59.375 2.30201 59.375 3.13291C59.375 3.96381 59.0458 4.76068 58.4597 5.34821C57.8737 5.93575 57.0788 6.26582 56.25 6.26582H37.5C36.6712 6.26582 35.8763 5.93575 35.2903 5.34821C34.7042 4.76068 34.375 3.96381 34.375 3.13291ZM93.75 37.5949C93.75 38.4258 93.4208 39.2227 92.8347 39.8102C92.2487 40.3978 91.4538 40.7278 90.625 40.7278H87.5V72.057C87.5 73.7188 86.8415 75.3125 85.6694 76.4876C84.4973 77.6626 82.9076 78.3228 81.25 78.3228H71.875C70.2174 78.3228 68.6277 77.6626 67.4556 76.4876C66.2835 75.3125 65.625 73.7188 65.625 72.057V68.9241H28.125V72.057C28.125 73.7188 27.4665 75.3125 26.2944 76.4876C25.1223 77.6626 23.5326 78.3228 21.875 78.3228H12.5C10.8424 78.3228 9.25268 77.6626 8.08058 76.4876C6.90848 75.3125 6.25 73.7188 6.25 72.057V40.7278H3.125C2.2962 40.7278 1.50134 40.3978 0.915291 39.8102C0.32924 39.2227 0 38.4258 0 37.5949C0 36.764 0.32924 35.9672 0.915291 35.3796C1.50134 34.7921 2.2962 34.462 3.125 34.462H7.5625L18.2617 15.6881C18.8084 14.7292 19.5982 13.9323 20.551 13.378C21.5038 12.8237 22.5859 12.5317 23.6875 12.5316H70.0625C71.1641 12.5317 72.2462 12.8237 73.199 13.378C74.1518 13.9323 74.9416 14.7292 75.4883 15.6881L86.1875 34.462H90.625C91.4538 34.462 92.2487 34.7921 92.8347 35.3796C93.4208 35.9672 93.75 36.764 93.75 37.5949ZM31.25 50.1266C31.25 49.2957 30.9208 48.4988 30.3347 47.9113C29.7487 47.3237 28.9538 46.9937 28.125 46.9937H18.75C17.9212 46.9937 17.1263 47.3237 16.5403 47.9113C15.9542 48.4988 15.625 49.2957 15.625 50.1266C15.625 50.9575 15.9542 51.7544 16.5403 52.3419C17.1263 52.9294 17.9212 53.2595 18.75 53.2595H28.125C28.9538 53.2595 29.7487 52.9294 30.3347 52.3419C30.9208 51.7544 31.25 50.9575 31.25 50.1266ZM78.125 50.1266C78.125 49.2957 77.7958 48.4988 77.2097 47.9113C76.6237 47.3237 75.8288 46.9937 75 46.9937H65.625C64.7962 46.9937 64.0013 47.3237 63.4153 47.9113C62.8292 48.4988 62.5 49.2957 62.5 50.1266C62.5 50.9575 62.8292 51.7544 63.4153 52.3419C64.0013 52.9294 64.7962 53.2595 65.625 53.2595H75C75.8288 53.2595 76.6237 52.9294 77.2097 52.3419C77.7958 51.7544 78.125 50.9575 78.125 50.1266ZM78.9883 34.462L70.0625 18.7975H23.6875L14.7617 34.462H78.9883Z" fill="var(--fill-0, #1A1A1A)"/>
</g>
</svg>
