<svg preserveAspectRatio="none" width="100%" height="100%" overflow="visible" style="display: block;" viewBox="0 0 93.75 78.3228" fill="none" xmlns="http://www.w3.org/2000/svg">
<path id="HandHeart" d="M89.9562 46.4234C88.9345 45.5652 87.7632 44.9427 86.5136 44.5936C85.2641 44.2445 83.9625 44.1763 82.688 44.393C90.0226 36.3224 93.7328 28.2986 93.7328 20.4323C93.7328 9.16497 85.4179 0.000399396 75.1972 0.000399396C72.4852 -0.0181625 69.8024 0.610482 67.337 1.8422C64.8717 3.07392 62.6836 4.87885 60.9263 7.13029C59.1691 4.87885 56.981 3.07392 54.5157 1.8422C52.0503 0.610482 49.3675 -0.0181625 46.6555 0.000399396C36.4347 0.000399396 28.1198 9.16497 28.1198 20.4323C28.1198 25.1146 29.3852 29.665 32.0488 34.4793C29.8673 35.0816 27.8765 36.3173 26.2881 38.0549L17.4538 47.6749H6.24885C4.59156 47.6749 3.00213 48.3924 1.83025 49.6697C0.65836 50.9469 0 52.6792 0 54.4855L0 71.5121C0 73.3184 0.65836 75.0507 1.83025 76.328C3.00213 77.6052 4.59156 78.3228 6.24885 78.3228H46.8664C47.1219 78.3229 47.3764 78.2886 47.6241 78.2206L72.6195 71.41C72.7788 71.3686 72.9344 71.3117 73.0843 71.2397L88.2651 64.1992L88.4369 64.1141C89.8959 63.3195 91.1453 62.1332 92.0673 60.6669C92.9894 59.2006 93.5538 57.5026 93.7073 55.7328C93.8609 53.9631 93.5985 52.1799 92.945 50.5512C92.2915 48.9225 91.2683 47.502 89.9718 46.4234H89.9562ZM85.6991 57.9802L70.8581 64.8675L46.4759 71.5121H21.871V52.4892L30.7092 42.8606C31.2874 42.2254 31.9756 41.7219 32.7339 41.3791C33.4922 41.0364 34.3055 40.8614 35.1264 40.8643H54.6775C55.9205 40.8643 57.1125 41.4024 57.9914 42.3603C58.8703 43.3183 59.3641 44.6175 59.3641 45.9722C59.3641 47.327 58.8703 48.6262 57.9914 49.5841C57.1125 50.542 55.9205 51.0802 54.6775 51.0802H43.742C42.9133 51.0802 42.1186 51.439 41.5327 52.0776C40.9467 52.7162 40.6176 53.5824 40.6176 54.4855C40.6176 55.3887 40.9467 56.2548 41.5327 56.8935C42.1186 57.5321 42.9133 57.8909 43.742 57.8909H56.2397C56.4749 57.8901 56.7093 57.8616 56.9388 57.8057L83.1059 51.2462L83.2269 51.2122C84.0257 50.9705 84.8783 51.0593 85.6206 51.4615C86.363 51.8638 86.9426 52.551 87.248 53.391C87.5533 54.231 87.5629 55.1644 87.2748 56.0116C86.9867 56.8589 86.4213 57.56 85.6874 57.9802H85.6991Z" fill="var(--fill-0, #1A1A1A)"/>
</svg>
