<svg preserveAspectRatio="none" width="100%" height="100%" overflow="visible" style="display: block;" viewBox="0 0 16.3125 14.625" fill="none" xmlns="http://www.w3.org/2000/svg">
<path id="Vector" d="M10.6875 0H10.125C9.82663 0 9.54048 0.118526 9.32951 0.329505C9.11853 0.540483 9 0.826632 9 1.125V5.0625H3.31875C3.18822 4.42766 2.8428 3.85723 2.34073 3.44737C1.83865 3.03752 1.21062 2.81329 0.5625 2.8125C0.413316 2.8125 0.270242 2.87176 0.164752 2.97725C0.0592632 3.08274 0 3.22582 0 3.375C0 3.52418 0.0592632 3.66726 0.164752 3.77275C0.270242 3.87824 0.413316 3.9375 0.5625 3.9375C1.01005 3.9375 1.43928 4.11529 1.75574 4.43176C2.07221 4.74823 2.25 5.17745 2.25 5.625C2.25167 7.11633 2.84485 8.5461 3.89937 9.60063C4.9539 10.6552 6.38367 11.2483 7.875 11.25H10.6875C12.1793 11.25 13.6101 10.6574 14.665 9.60248C15.7199 8.54758 16.3125 7.11684 16.3125 5.625C16.3125 4.13316 15.7199 2.70242 14.665 1.64752C13.6101 0.592632 12.1793 0 10.6875 0ZM15.1509 5.0625H11.1663L14.1096 2.70773C14.6796 3.37389 15.0417 4.19261 15.1509 5.0625ZM10.6875 1.125C11.6111 1.12413 12.5123 1.4093 13.2673 1.94133L10.125 4.4543V1.125H10.6875ZM10.6875 10.125H7.875C6.7793 10.1237 5.72162 9.72319 4.89984 8.99847C4.07805 8.27374 3.54846 7.27444 3.41016 6.1875H15.1523C15.014 7.27444 14.4844 8.27374 13.6627 8.99847C12.8409 9.72319 11.7832 10.1237 10.6875 10.125ZM6.75 13.5C6.75 13.7225 6.68402 13.94 6.5604 14.125C6.43679 14.31 6.26109 14.4542 6.05552 14.5394C5.84995 14.6245 5.62375 14.6468 5.40552 14.6034C5.18729 14.56 4.98684 14.4528 4.82951 14.2955C4.67217 14.1382 4.56502 13.9377 4.52162 13.7195C4.47821 13.5012 4.50049 13.275 4.58564 13.0695C4.67078 12.8639 4.81498 12.6882 4.99998 12.5646C5.18499 12.441 5.4025 12.375 5.625 12.375C5.92337 12.375 6.20952 12.4935 6.42049 12.7045C6.63147 12.9155 6.75 13.2016 6.75 13.5ZM14.0625 13.5C14.0625 13.7225 13.9965 13.94 13.8729 14.125C13.7493 14.31 13.5736 14.4542 13.368 14.5394C13.1625 14.6245 12.9363 14.6468 12.718 14.6034C12.4998 14.56 12.2993 14.4528 12.142 14.2955C11.9847 14.1382 11.8775 13.9377 11.8341 13.7195C11.7907 13.5012 11.813 13.275 11.8981 13.0695C11.9833 12.8639 12.1275 12.6882 12.3125 12.5646C12.4975 12.441 12.715 12.375 12.9375 12.375C13.2359 12.375 13.522 12.4935 13.733 12.7045C13.944 12.9155 14.0625 13.2016 14.0625 13.5Z" fill="var(--fill-0, #1A1A1A)"/>
</svg>
