<svg preserveAspectRatio="none" width="100%" height="100%" overflow="visible" style="display: block;" viewBox="0 0 11.8411 15.1875" fill="none" xmlns="http://www.w3.org/2000/svg">
<path id="Vector" d="M9.59109 4.5C10.0361 4.5 10.4711 4.36804 10.8411 4.12081C11.2111 3.87357 11.4995 3.52217 11.6698 3.11104C11.8401 2.6999 11.8847 2.24751 11.7979 1.81105C11.711 1.37459 11.4967 0.973679 11.1821 0.659011C10.8674 0.344343 10.4665 0.130051 10.03 0.0432341C9.59358 -0.0435826 9.14118 0.000974885 8.73005 0.171272C8.31891 0.341569 7.96751 0.629957 7.72028 0.999968C7.47305 1.36998 7.34109 1.80499 7.34109 2.25C7.34109 2.84674 7.57814 3.41903 8.0001 3.84099C8.42205 4.26295 8.99435 4.5 9.59109 4.5ZM9.59109 1.125C9.81359 1.125 10.0311 1.19098 10.2161 1.3146C10.4011 1.43821 10.5453 1.61392 10.6305 1.81948C10.7156 2.02505 10.7379 2.25125 10.6945 2.46948C10.6511 2.68771 10.5439 2.88816 10.3866 3.0455C10.2292 3.20283 10.0288 3.30998 9.81056 3.35338C9.59233 3.39679 9.36613 3.37451 9.16057 3.28937C8.955 3.20422 8.7793 3.06002 8.65568 2.87502C8.53207 2.69001 8.46609 2.47251 8.46609 2.25C8.46609 1.95163 8.58461 1.66548 8.79559 1.45451C9.00657 1.24353 9.29272 1.125 9.59109 1.125ZM9.02859 10.6875C9.02859 11.5775 8.76467 12.4475 8.2702 13.1876C7.77573 13.9276 7.07293 14.5044 6.25066 14.845C5.42839 15.1856 4.52359 15.2747 3.65068 15.101C2.77776 14.9274 1.97594 14.4988 1.34661 13.8695C0.717269 13.2401 0.288686 12.4383 0.115052 11.5654C-0.0585814 10.6925 0.0305336 9.78769 0.371128 8.96543C0.711722 8.14316 1.2885 7.44035 2.02852 6.94589C2.76854 6.45142 3.63857 6.1875 4.52859 6.1875C4.67777 6.1875 4.82084 6.24676 4.92633 6.35225C5.03182 6.45774 5.09109 6.60082 5.09109 6.75C5.09109 6.89919 5.03182 7.04226 4.92633 7.14775C4.82084 7.25324 4.67777 7.3125 4.52859 7.3125C3.86107 7.3125 3.20855 7.51044 2.65354 7.88129C2.09852 8.25214 1.66594 8.77924 1.41049 9.39594C1.15505 10.0126 1.08821 10.6912 1.21844 11.3459C1.34866 12.0006 1.6701 12.602 2.1421 13.074C2.6141 13.546 3.21547 13.8674 3.87016 13.9977C4.52484 14.1279 5.20344 14.061 5.82014 13.8056C6.43684 13.5501 6.96395 13.1176 7.3348 12.5626C7.70565 12.0075 7.90359 11.355 7.90359 10.6875C7.90359 10.5383 7.96285 10.3952 8.06834 10.2898C8.17383 10.1843 8.3169 10.125 8.46609 10.125C8.61527 10.125 8.75834 10.1843 8.86383 10.2898C8.96932 10.3952 9.02859 10.5383 9.02859 10.6875ZM11.7138 8.08102C11.7665 8.14542 11.8042 8.22069 11.8243 8.30143C11.8443 8.38216 11.8462 8.46634 11.8298 8.54789L10.7048 14.1729C10.6793 14.3003 10.6105 14.415 10.51 14.4974C10.4095 14.5799 10.2836 14.6249 10.1536 14.625C10.1163 14.6251 10.079 14.6213 10.0425 14.6138C9.89633 14.5844 9.7678 14.4982 9.68514 14.3742C9.60247 14.2501 9.57244 14.0983 9.60163 13.9521L10.5923 9H6.21609C6.11728 9.00015 6.02017 8.97426 5.93455 8.92495C5.84892 8.87564 5.77779 8.80465 5.72832 8.71911C5.67886 8.63358 5.65279 8.53652 5.65276 8.43771C5.65272 8.3389 5.67871 8.24182 5.72812 8.15625L7.13859 5.70234C6.15794 5.19011 5.04813 4.9781 3.94772 5.09277C2.84731 5.20743 1.80506 5.6437 0.951086 6.34711C0.895328 6.40038 0.829212 6.44162 0.756843 6.46827C0.684475 6.49491 0.607402 6.50639 0.53041 6.50199C0.453419 6.49759 0.378154 6.47741 0.309293 6.44269C0.240431 6.40798 0.179442 6.35948 0.130116 6.3002C0.0807893 6.24092 0.044179 6.17213 0.0225587 6.09811C0.000938446 6.02408 -0.00522995 5.9464 0.00443693 5.8699C0.0141038 5.79339 0.0393995 5.71968 0.0787524 5.65336C0.118105 5.58704 0.170675 5.52952 0.233195 5.48438C1.34168 4.56966 2.71318 4.03262 4.14805 3.95143C5.58292 3.87024 7.00626 4.24914 8.21085 5.03297C8.33132 5.11143 8.41718 5.23304 8.45078 5.37283C8.48439 5.51262 8.4632 5.65996 8.39155 5.78461L7.18781 7.875H11.2786C11.3619 7.87498 11.4441 7.89346 11.5194 7.92908C11.5946 7.96471 11.661 8.0166 11.7138 8.08102Z" fill="var(--fill-0, #1A1A1A)"/>
</svg>
