<svg preserveAspectRatio="none" width="100%" height="100%" overflow="visible" style="display: block;" viewBox="0 0 8.20105 8.23422" fill="none" xmlns="http://www.w3.org/2000/svg">
<path id="Vector" d="M3.7266 0H4.45052C4.54024 0.0358129 4.86084 0.0999956 4.96647 0.122936C5.32973 0.201832 5.65028 0.310185 5.98237 0.480936C6.94854 0.986891 7.67722 1.85222 8.01133 2.8904C8.33631 3.92208 8.24108 5.0403 7.74635 6.00215C7.23464 6.98502 6.35386 7.72469 5.29736 8.05886C4.30125 8.37115 3.14858 8.25989 2.22367 7.77656C1.25054 7.27357 0.517232 6.40445 0.185251 5.36055C-0.138909 4.31479 -0.0347291 3.18311 0.474849 2.21405C1.03756 1.14426 2.05633 0.346098 3.25016 0.118186C3.39049 0.0913959 3.56934 0.0505162 3.70335 0.00757996L3.7266 0Z" fill="var(--fill-0, #737373)"/>
</svg>
