<svg preserveAspectRatio="none" width="100%" height="100%" overflow="visible" style="display: block;" viewBox="0 0 55 33" fill="none" xmlns="http://www.w3.org/2000/svg">
<path id="Route" d="M2.43119 0.0583936C4.0527 -0.0272682 6.9902 -0.00913272 8.63993 0.051448C13.6754 0.263287 18.4231 2.45249 21.8491 6.14238C22.9113 7.28473 23.6786 8.54316 24.6567 9.59162C26.1841 11.2392 28.1448 12.4246 30.3151 13.0124C32.6356 13.6347 34.7656 13.4428 37.1103 13.4773C39.8337 13.5175 42.6832 13.4027 45.3938 13.4984C44.7203 12.8437 44.0084 12.0588 43.3148 11.4476C41.8052 10.1174 40.1649 8.23331 42.0966 6.30644C42.5915 5.80719 43.2664 5.52731 43.97 5.5295C44.5171 5.53078 45.0506 5.69896 45.4991 6.01144C46.0015 6.36695 47.1984 7.62159 47.6844 8.10476C49.255 9.66596 50.8345 11.2418 52.3861 12.8226C52.9736 13.4042 53.6712 13.79 54.2929 14.3345C55.0884 15.0313 55.2196 16.9198 54.6514 17.7858C54.1456 18.5567 53.142 19.4373 52.4628 20.1193C50.4092 22.1811 48.3335 24.2383 46.2735 26.2952C45.6537 26.9118 44.9079 27.5871 43.9311 27.5131C41.8834 27.3581 40.4843 25.1638 41.6795 23.3295C42.7176 21.9866 44.3173 20.473 45.6116 19.2904C43.5145 19.3755 40.823 19.2967 38.682 19.296C33.0787 19.2894 28.3999 18.9681 24.3853 23.777C23.6545 24.6522 23.0349 25.6569 22.2576 26.4812C18.9591 29.9789 14.5899 32.4173 9.75924 32.903C7.62524 33.0626 5.5344 32.9343 3.39679 32.9907C1.19314 33.1225 -0.383393 31.8512 0.0956951 29.5112C0.345482 28.2912 1.25802 27.5714 2.48711 27.4926C4.73141 27.3485 7.00451 27.5377 9.25531 27.4199C12.5827 27.2947 16.3211 25.4524 18.3604 22.7635C20.3259 20.1721 21.9083 18.2751 24.8639 16.5893C23.7989 15.6489 22.6205 15.0331 21.5621 13.942C19.0866 11.3903 17.7351 8.92755 14.4545 7.17264C13.0443 6.40946 11.5068 5.90893 9.91695 5.69555C8.19192 5.47162 6.39743 5.59387 4.6581 5.56268C3.55096 5.54288 1.9741 5.6906 1.01881 5.01128C-0.164993 4.16952 -0.3056 2.20142 0.53672 1.07547C1.07125 0.360976 1.59638 0.183799 2.43119 0.0583936Z" fill="var(--fill-0, black)"/>
</svg>
