<svg preserveAspectRatio="none" width="100%" height="100%" overflow="visible" style="display: block;" viewBox="0 0 10.0696 12.97" fill="none" xmlns="http://www.w3.org/2000/svg">
<path id="Vector" d="M0 4.36213C0.0843721 4.19424 0.143683 3.86543 0.195101 3.67217C0.607072 2.12355 1.7906 0.857728 3.29249 0.311318C4.55055 -0.153745 5.9424 -0.095831 7.15747 0.472126C8.374 1.03781 9.31566 2.06402 9.77493 3.32454C10.2911 4.75686 10.0995 6.14883 9.4316 7.50598C8.45275 9.49505 6.93284 11.2313 5.34004 12.7556C5.25462 12.8374 5.06461 13.0385 4.9613 12.9463C4.64732 12.7142 4.38028 12.4047 4.09284 12.1381C2.5554 10.537 0.901179 8.59828 0.227266 6.44471C0.185651 6.31171 0.049134 5.70706 0 5.63515V4.36213ZM5.01755 6.66384C5.90458 6.67306 6.63466 5.96833 6.65678 5.08154C6.67893 4.19473 5.98492 3.45448 5.09852 3.41945C4.51355 3.39632 3.96145 3.69005 3.65378 4.18809C3.34608 4.68615 3.33047 5.31131 3.61296 5.82409C3.89542 6.33687 4.43215 6.65775 5.01755 6.66384Z" fill="var(--fill-0, #737373)"/>
</svg>
