<svg preserveAspectRatio="none" width="100%" height="100%" overflow="visible" style="display: block;" viewBox="0 0 70 27.5388" fill="none" xmlns="http://www.w3.org/2000/svg">
<path id="Vector" d="M21.0757 0.0742176C23.6882 -0.0695387 27.3518 0.0398233 30.0255 0.0397546L34.794 0.0408535C40.6052 0.0440801 40.1193 0.106209 44.5559 3.75833L50.2849 8.47312C52.9256 10.6454 52.273 10.3903 55.6422 10.9961L62.5431 12.2402C63.8166 12.4688 65.2357 12.6697 66.4654 13.0198C68.204 13.426 69.9972 15.5374 69.9174 17.3762C69.8057 19.9628 70.6251 23.6571 68.7274 25.7601C67.5252 27.0928 66.441 27.4009 64.7532 27.5388C64.8773 27.0622 64.9193 26.8093 64.9367 26.315C65.0409 23.9179 64.1695 21.5795 62.5175 19.8231C60.8674 18.0887 58.6988 17.1636 56.3006 17.1012C53.931 17.0198 51.6286 17.889 49.9159 19.5116C48.0054 21.3164 47.2526 23.4484 47.1907 26.0101C47.1932 26.5553 47.2225 26.9917 47.3498 27.5217C45.1877 27.4723 42.7755 27.5272 40.5954 27.5281L24.7882 27.5144C25.0942 26.3253 25.0017 25.0072 24.7263 23.8185C24.1917 21.571 22.7813 19.6236 20.8023 18.4005C15.0833 14.8833 7.48376 18.768 7.24344 25.4467C7.21763 26.1638 7.21742 26.8224 7.38663 27.5252C6.8756 27.5188 6.36864 27.5206 5.85761 27.4969C2.60748 27.3466 0.0900125 24.8299 0.0218431 21.5987C-0.0185467 19.6843 0.0197798 17.7486 0.00250951 15.8337C-0.0476605 14.0873 0.653729 12.3347 2.16847 11.3375C4.19624 10.0027 7.3337 10.5696 9.71489 10.4539C10.3349 9.83825 11.0569 8.93912 11.648 8.25419L15.1043 4.24226C17.0331 1.99131 17.946 0.450703 21.0757 0.0742176ZM44.9194 10.5104C46.0822 10.5212 47.6481 10.0943 46.1227 8.87068C43.8596 7.05539 41.0378 4.78866 38.5994 3.11891C37.6282 2.89971 31.2865 2.97022 30.1326 3.03001C30.1086 3.03132 30.0847 3.03289 30.0608 3.03468C29.2788 3.05081 28.5277 3.31073 28.3942 4.1686C28.1792 5.55103 28.3977 7.16874 28.3096 8.58557C28.2494 9.55315 28.8531 10.3575 29.8421 10.4381C31.4332 10.5498 33.0833 10.4843 34.6914 10.4871L44.9194 10.5104ZM18.5666 10.4786C19.6579 10.4838 23.1384 10.7162 23.8612 10.0393C24.735 9.22121 24.3885 6.35261 24.4369 5.11523C24.5402 2.47318 22.3132 2.97276 20.5378 3.02102C19.4533 3.27929 16.5703 7.22119 15.5651 8.23675C12.8184 11.0119 16.8547 10.4924 18.5666 10.4786ZM32.5381 16.517C33.1698 16.4691 33.5376 16.4025 33.9776 15.9049C34.2868 15.5551 34.4401 15.0966 34.4026 14.6334C34.3725 14.2712 34.1955 13.9365 33.9121 13.7055C33.2062 13.121 31.8609 13.2382 30.9657 13.2581C30.2572 13.2819 29.8487 13.2656 29.318 13.8178C28.7256 14.4341 28.6698 15.4633 29.3618 16.0279C30.1719 16.689 31.535 16.5332 32.5381 16.517Z" fill="var(--fill-0, black)"/>
</svg>
