<svg preserveAspectRatio="none" width="100%" height="100%" overflow="visible" style="display: block;" viewBox="0 0 6.34146 6.33848" fill="none" xmlns="http://www.w3.org/2000/svg">
<path id="Vector" d="M0.52474 4.27137e-05C1.43637 -0.00674169 1.22762 0.79604 1.34528 1.42996C1.41508 1.80815 1.53381 2.17561 1.69843 2.52317C2.26199 3.70968 3.37818 4.65474 4.6706 4.93544C5.07054 5.02931 5.50189 5.00713 5.89326 5.13048C6.24454 5.24121 6.43966 5.56992 6.29134 5.921C6.19093 6.15861 6.07477 6.24082 5.84488 6.33469C5.04044 6.36468 4.23933 6.21622 3.49897 5.89993C2.09349 5.29926 0.981509 4.1682 0.40446 2.75233C0.176789 2.18621 -0.160775 0.956684 0.086875 0.351682C0.176829 0.131963 0.319713 0.0783212 0.52474 4.27137e-05Z" fill="var(--fill-0, black)"/>
</svg>
