<svg preserveAspectRatio="none" width="100%" height="100%" overflow="visible" style="display: block;" viewBox="0 0 15.4607 13.7024" fill="none" xmlns="http://www.w3.org/2000/svg">
<path id="Vector" d="M0.00393784 12.0319L7.46252 12.0323C8.83742 12.0322 10.2181 12.0354 11.5924 12.0318C12.216 12.022 12.7558 11.8238 13.1939 11.375C14.3127 10.229 13.8616 8.28918 12.3321 7.79174C11.838 7.63104 11.2316 7.67586 10.7026 7.67643L8.27477 7.67952C7.66839 7.68018 6.85048 7.70987 6.27558 7.58915C5.58195 7.44538 4.94173 7.11216 4.426 6.62654C3.68255 5.93067 3.24918 4.96574 3.22287 3.94778C3.19553 2.9321 3.56981 1.9466 4.26448 1.20512C4.74286 0.691033 5.35757 0.323587 6.0369 0.145634C6.79298 -0.0561899 7.52243 0.0164082 8.29287 0.00366597C9.25244 -0.0122207 10.2576 0.0304355 11.2124 0.00177924C11.0594 0.436736 11.4438 1.47801 10.9549 1.66286L8.41969 1.66146C7.95309 1.66108 7.48625 1.66507 7.02062 1.6689C5.76013 1.67926 4.80367 2.70815 4.87236 3.96315C4.91725 4.86199 5.51644 5.63809 6.37465 5.90898C6.84756 6.05642 7.49533 6.0241 7.99925 6.02331L10.404 6.01951C11.0408 6.01863 11.8394 5.98519 12.4475 6.11445C13.0947 6.2548 13.6944 6.56075 14.1879 7.00235C14.9493 7.67709 15.4062 8.63065 15.4548 9.64688C15.5118 10.6705 15.1534 11.6738 14.4607 12.4297C13.9389 13.0049 13.2549 13.4085 12.4991 13.5872C11.9333 13.7167 11.2984 13.691 10.7163 13.6911L8.97747 13.6913L3.13759 13.6902C2.18247 13.69 0.938109 13.6557 0 13.7024L0.00393784 12.0319Z" fill="var(--fill-0, #737373)"/>
</svg>
