<svg preserveAspectRatio="none" width="100%" height="100%" overflow="visible" style="display: block;" viewBox="0 0 10.0703 12.962" fill="none" xmlns="http://www.w3.org/2000/svg">
<path id="Vector" d="M10.0703 5.57648C9.99807 5.73663 9.95268 6.01841 9.90264 6.19907C9.25334 8.5394 7.52926 10.5121 5.87999 12.2253C5.64648 12.445 5.33829 12.7983 5.0701 12.9561C4.93445 13.0359 4.22301 12.2799 4.1129 12.165C2.56497 10.5509 1.01308 8.73911 0.265145 6.59621C-0.172027 5.34368 -0.0605748 3.93594 0.540249 2.75687C1.14006 1.56143 2.19542 0.657449 3.46882 0.248406C4.74938 -0.17014 6.14443 -0.0563923 7.34028 0.564068C8.64387 1.23879 9.63084 2.47592 9.93409 3.91893C9.96799 4.08064 10.012 4.27533 10.0623 4.43067L10.0703 4.45511V5.57648ZM4.97062 6.66252C5.86449 6.6947 6.61584 5.99755 6.65057 5.10376C6.68527 4.21 5.99024 3.45668 5.09657 3.41944C4.19933 3.38206 3.44232 4.08048 3.40746 4.97782C3.37262 5.87516 4.07317 6.6302 4.97062 6.66252Z" fill="var(--fill-0, #737373)"/>
</svg>
