<svg preserveAspectRatio="none" width="100%" height="100%" overflow="visible" style="display: block;" viewBox="0 0 6.45707 9.65959" fill="none" xmlns="http://www.w3.org/2000/svg">
<path id="Vector" d="M5.53263 0C5.53758 0.000574219 5.54266 0.000546942 5.5475 0.00177741C5.67897 0.0346993 6.3493 1.1413 6.45707 1.32382C6.07004 1.6027 5.70536 1.86602 5.34609 2.18023C3.09228 4.15133 1.88109 6.69878 1.66094 9.65959C1.42141 9.65959 1.18196 9.65068 0.943075 9.6329C0.62915 9.60632 0.314729 9.58598 0 9.57187C0.0551223 9.37152 0.0928457 8.80018 0.125871 8.55487C0.208753 7.94686 0.338045 7.34609 0.512616 6.75782C1.19875 4.46121 2.53285 2.41131 4.35493 0.854027C4.70023 0.5635 5.13598 0.214184 5.53263 0Z" fill="var(--fill-0, #737373)"/>
</svg>
