<svg preserveAspectRatio="none" width="100%" height="100%" overflow="visible" style="display: block;" viewBox="0 0 28 28" fill="none" xmlns="http://www.w3.org/2000/svg">
<path id="Home" d="M13.5375 0H14.4336C14.8697 0.173242 15.2957 0.272957 15.6585 0.609293C16.2244 1.13399 16.7852 1.71573 17.3315 2.26219L20.5683 5.49927L25.0215 9.95258C25.7777 10.7087 26.5377 11.4601 27.2861 12.224C27.7602 12.7079 27.7799 13.0391 28 13.6291V14.3761C27.7006 15.2882 27.4769 15.8126 26.5549 16.3181C26.1662 16.5311 25.4448 16.6585 25.0067 16.5959C24.9553 18.6288 25.0275 20.6869 24.9975 22.7161C24.9847 23.5873 25.0517 24.6559 24.9504 25.4814C24.8227 26.5227 23.9234 27.5546 22.9283 27.8365C22.8172 27.8679 22.5745 27.9418 22.4757 28H17.2913C17.1084 27.8868 16.8233 27.7236 16.7633 27.519C16.6347 27.0807 16.6868 26.3753 16.6873 25.9113L16.6882 22.4009C16.6886 21.7804 16.7278 21.1372 16.6747 20.5206C16.6582 20.3298 16.6181 20.1015 16.5274 19.932C16.3665 19.631 16.062 19.3841 15.7341 19.2909C15.371 19.1877 12.9015 19.1961 12.4488 19.2566C12.2811 19.2788 12.1192 19.3332 11.9721 19.4168C11.6844 19.5805 11.4711 19.849 11.3766 20.1663C11.255 20.566 11.2982 22.0775 11.2987 22.5949L11.301 26.0185C11.3011 26.3729 11.3024 26.7325 11.2964 27.0858C11.2873 27.6238 11.1221 27.7473 10.6878 28H5.53191C5.45032 27.9546 5.17095 27.8666 5.07437 27.8373C4.00567 27.5341 3.09293 26.4389 3.0217 25.3205C2.96431 24.4195 2.99619 23.416 2.99655 22.4992L2.99398 16.601C1.8567 16.6805 0.743531 16.1643 0.24202 15.1075C0.149636 14.9129 0.109681 14.6633 0.00914987 14.4753L0 14.4585V13.5367C0.0433319 13.4759 0.165676 13.1142 0.204704 13.017C0.319968 12.722 0.48807 12.4506 0.700752 12.216C0.944866 11.9438 1.27927 11.628 1.54189 11.3671L2.92277 9.98826L7.38451 5.52587L10.6656 2.24246C11.2264 1.68077 11.8096 1.07445 12.3967 0.540498C12.6861 0.277331 13.1876 0.148909 13.5375 0Z" fill="var(--fill-0, #737373)"/>
</svg>
