<svg preserveAspectRatio="none" width="100%" height="100%" overflow="visible" style="display: block;" viewBox="0 0 27.9138 29.1923" fill="none" xmlns="http://www.w3.org/2000/svg">
<path id="Vector" d="M10.5404 0.00506471C11.9891 -0.0887663 12.472 1.13921 13.1272 2.19008L14.6885 4.68785C16.7232 7.93722 18.5878 11.0255 20.8295 14.1353C20.2305 12.2626 19.3705 9.89652 19.7557 7.94702C20.0353 6.48421 20.8697 5.18735 22.0631 4.29681C22.4901 3.91125 23.4563 3.83258 23.7562 4.44607C24.102 5.15327 23.9124 6.41104 24.0994 7.22045C24.2306 7.78879 24.3202 8.29159 24.4767 8.83526C25.2902 11.6629 27.1011 13.924 27.691 16.8592C28.0109 18.4495 27.986 20.0901 27.6181 21.6701C26.395 26.9108 21.3645 30.1857 16.0851 28.9205C15.006 28.658 13.9787 28.2158 13.0462 27.6125C11.3282 26.4993 10.3452 24.9975 8.78061 23.7834C8.26836 23.3858 7.08618 22.7415 6.47082 22.3855L2.72741 20.2231C1.4635 19.4947 -0.117904 19.0075 0.323676 17.2215C0.45502 16.8228 0.726155 16.4669 1.09758 16.2646C1.40703 16.0977 1.76378 16.0403 2.10995 16.1016C2.57806 16.1888 3.35763 16.5934 3.81254 16.8057L7.44147 18.4998C7.88087 18.7064 8.98361 19.2557 9.35845 19.3622C8.80345 18.911 8.01535 18.3566 7.42668 17.9117L3.00893 14.5803C2.19862 13.969 1.28445 13.3199 0.527632 12.6482C0.285487 12.4333 0.147084 12.1834 0.0636059 11.8677C-0.0685312 11.3562 0.00697559 10.8131 0.273669 10.3571C0.523627 9.93667 0.869476 9.64423 1.34865 9.52746C1.72206 9.43494 2.11522 9.46375 2.47118 9.60967C2.90987 9.79095 4.4511 10.8712 4.93182 11.1914L9.12146 13.9776C9.89084 14.4894 10.7241 15.075 11.5065 15.5498C11.029 15.0113 10.4052 14.3913 9.90226 13.8536L5.88069 9.58079L4.36591 7.97852C3.85929 7.43696 3.20813 6.88583 3.15776 6.10872C3.09257 5.0183 3.78573 4.0615 4.91599 3.98592C5.94485 3.91712 6.50552 4.74823 7.17252 5.38736C7.5485 5.74768 7.91981 6.14141 8.28957 6.51368L12.3017 10.5436C12.9373 11.179 13.7517 12.0394 14.4117 12.6273C14.1269 11.9793 13.4321 10.7677 13.0775 10.1004L10.3126 4.90316C10.1464 4.59128 9.97876 4.28388 9.81288 3.96537C9.27227 2.92732 8.49555 1.91335 9.28599 0.754404C9.60948 0.280091 9.98975 0.103062 10.5404 0.00506471Z" fill="var(--fill-0, black)"/>
</svg>
