<svg preserveAspectRatio="none" width="100%" height="100%" overflow="visible" style="display: block;" viewBox="0 0 23.3559 14.4748" fill="none" xmlns="http://www.w3.org/2000/svg">
<path id="Vector" d="M4.21401 14.4748L4.19052 14.4669C3.87399 14.3614 3.45432 14.3149 3.11337 14.2088C1.99083 13.8519 1.0554 13.0648 0.511996 12.0198C0.301624 11.6058 0.0914655 10.9597 0.0505128 10.4943C-0.115836 8.60399 0.135 6.2754 0.709719 4.47648C1.205 2.9262 2.16851 1.31065 3.64977 0.57811C4.35702 0.228356 5.74143 -0.17346 6.5154 0.0793061C7.03485 0.248947 7.88472 0.917146 8.4139 1.21284C10.4339 2.34156 12.3906 2.45157 14.4911 1.44406C15.3186 1.04711 16.0457 0.36904 16.8785 0.05579C17.091 -0.0241357 17.6046 0.00864966 17.8326 0.034845C18.241 0.0791692 18.6431 0.16913 19.0315 0.303005C20.5971 0.840501 21.4471 1.89654 22.1777 3.33195C23.1379 5.21862 23.7432 9.52023 23.0704 11.4533C22.687 12.5617 21.8738 13.4692 20.8139 13.9712C20.5311 14.1079 20.3965 14.1658 20.1056 14.2484C19.9207 14.3009 19.2992 14.4092 19.1804 14.4748H4.21401Z" fill="var(--fill-0, #737373)"/>
</svg>
